<svg width="101" height="169" viewBox="0 0 101 169" fill="none" xmlns="http://www.w3.org/2000/svg">
<path d="M100.5 89.2071V50.7071L51 0.707115L0.5 50.7071V75.2071L51 125.207L69.5 105.707L27.5 62.7071L51 39.7071L100.5 89.2071Z" fill="currentColor"/>
<path d="M31.5 62.7071L51 43.7071L100.5 93.2071V117.707L51 167.707L0.5 117.707V80.2071L51 129.707L74.5 105.707L31.5 62.7071Z" fill="currentColor"/>
<path d="M100.5 89.2071V50.7071L51 0.707115L0.5 50.7071V75.2071L51 125.207L69.5 105.707L27.5 62.7071L51 39.7071L100.5 89.2071Z" stroke="currentColor"/>
<path d="M31.5 62.7071L51 43.7071L100.5 93.2071V117.707L51 167.707L0.5 117.707V80.2071L51 129.707L74.5 105.707L31.5 62.7071Z" stroke="currentColor"/>
</svg>
